<svg width="128" height="128" viewBox="0 0 128 128" fill="none" xmlns="http://www.w3.org/2000/svg">
  <rect width="128" height="128" fill="#F4DD1F"/>

  <!-- Cloud + controller body -->
  <path
    d="M22 84H94C106.15 84 116 74.15 116 62C116 49.85 106.15 40 94 40C91.1 40 88.35 40.56 85.84 41.58C81.54 30.71 70.95 23 58.55 23C45.31 23 34.13 31.8 30.51 43.86C29.68 43.74 28.85 43.68 28 43.68C16.95 43.68 8 52.63 8 63.68C8 74.73 16.95 83.68 28 83.68H44"
    stroke="#2B2F3A"
    stroke-width="11"
    stroke-linecap="round"
    stroke-linejoin="round"
  />

  <!-- Center sweep -->
  <path
    d="M43 84C52.5 72 62.9 58.9 82.6 41.4"
    stroke="#2B2F3A"
    stroke-width="11"
    stroke-linecap="round"
    stroke-linejoin="round"
  />

  <!-- D-pad -->
  <rect x="26" y="58.5" width="9" height="25" rx="4.5" fill="#2B2F3A"/>
  <rect x="18" y="66.5" width="25" height="9" rx="4.5" fill="#2B2F3A"/>

  <!-- Right buttons -->
  <circle cx="86.5" cy="61" r="5.2" fill="#2B2F3A"/>
  <circle cx="98.5" cy="61" r="5.2" fill="#2B2F3A"/>
  <circle cx="92.5" cy="72" r="5.2" fill="#2B2F3A"/>
</svg>
