<svg xmlns="http://www.w3.org/2000/svg" viewBox="0 0 64 64" role="img" aria-label="Recycle Bin">
  <defs>
    <linearGradient id="binBody" x1="0" x2="0" y1="0" y2="1">
      <stop offset="0" stop-color="#ffffff"/>
      <stop offset="1" stop-color="#dbe3ea"/>
    </linearGradient>
    <linearGradient id="binRim" x1="0" x2="1" y1="0" y2="1">
      <stop offset="0" stop-color="#f7fbff"/>
      <stop offset="1" stop-color="#cdd8e1"/>
    </linearGradient>
  </defs>
  <path d="M18 9h28l2 7H16z" fill="url(#binRim)"/>
  <path d="M15 16h34l-3 36H18z" fill="url(#binBody)" stroke="#bfc9d2" stroke-width="1"/>
  <path d="M20 18l7 33M28 18l4 34M36 18l-1 34M44 18l-7 33" stroke="#eef3f7" stroke-width="2" opacity=".9"/>
  <g fill="#0a8de3">
    <path d="M34.7 23.2l4.7 2.7-3.1 1.8 1.7 3-5.7-.1z"/>
    <path d="M24.2 35.1l2.6-4.8 1.7 3h3.5l-2.9 4.9z"/>
    <path d="M37.8 38.8l-5.4.1 1.7-3-1.8-3 5.9-.1z"/>
  </g>
</svg>
